<?xml version="1.0" encoding="UTF-8"?><svg id="a" xmlns="http://www.w3.org/2000/svg" viewBox="0 0 1200 193.98568"><defs><style>.g{fill:#76b900;}</style></defs><g id="b"><g id="c"><g id="d"><path id="e" class="g" d="M38.56867,20.41057v-6.1787c.59989-.04275,1.20576-.07471,1.82315-.09405,16.89914-.53116,27.98571,14.5203,27.98571,14.5203,0,0-11.97415,16.63154-24.81293,16.63154-1.84918,0-3.50396-.29809-4.99594-.79877v-18.73609c6.579.79468,7.90148,3.70058,11.8578,10.29337l8.79658-7.41682s-6.42104-8.42186-17.24558-8.42186c-1.1779,0-2.30342.08324-3.40881.20108M38.56866,0v9.2292c.60659-.04796,1.21395-.0866,1.82315-.10851,23.50083-.79173,38.81098,19.27318,38.81098,19.27318,0,0-17.58605,21.38442-35.90654,21.38442-1.67859,0-3.25051-.15498-4.7276-.41631v5.70479c1.26338.16058,2.57137.25498,3.93699.25498,17.04967,0,29.37884-8.70623,41.31844-19.01148,1.97818,1.58491,10.08264,5.44052,11.74933,7.13062-11.35273,9.50277-37.80779,17.1623-52.80572,17.1623-1.44517,0-2.83529-.08735-4.19903-.21817v8.01746h64.80145V0S38.56867,0,38.56866,0ZM38.56866,44.49088v4.87106c-15.76884-2.8115-20.14557-19.20328-20.14557-19.20328,0,0,7.57106-8.38879,20.14557-9.74808v5.34424l-.02454-.00259c-6.59833-.79248-11.75412,5.37286-11.75412,5.37286,0,0,2.88843,10.37884,11.77867,13.36582M10.56139,29.44836s9.34592-13.79065,28.00729-15.21648v-5.00267C17.89941,10.8881,0,28.39386,0,28.39386c0,0,10.13726,29.30786,38.56867,31.99112v-5.31824c-20.86369-2.62493-28.00729-25.61838-28.00729-25.61838Z"/><path id="f" d="M220.09499,12.9254l.00452,44.89854h12.67984V12.92616l-12.68436-.00076ZM120.34469,12.86439v44.95955h12.79298V23.68555l9.91051.00339c3.28303,0,5.62112.81691,7.20311,2.50491,2.00573,2.13735,2.82434,5.58271,2.82434,11.88815v19.74191l12.39299-.00227.00226-24.83763c0-17.72886-11.30098-20.11967-22.35645-20.11967h-22.76976M240.5118,12.92687v44.89705h20.56669c10.95789,0,14.53429-1.82249,18.40223-5.90848,2.73431-2.86838,4.50066-9.16517,4.50066-16.04649,0-6.31069-1.49519-11.94088-4.10408-15.44686-4.69761-6.26966-11.46558-7.49522-21.56927-7.49522h-17.79625.00002ZM253.0899,22.70293h5.45201c7.9095,0,13.02483,3.55193,13.02483,12.76792,0,9.21828-5.11533,12.7702-13.02483,12.7702h-5.45201v-25.53812ZM201.81247,12.92687l-10.58255,35.58351-10.14043-35.58123-13.688-.00228,14.48193,44.89704h18.2757l14.5957-44.89705h-12.94235ZM289.88196,57.82392h12.68208V12.92914l-12.68508-.00228.003,44.89706ZM325.42859,12.94307l-17.70627,44.86538h12.50323l2.8013-7.92982h20.95462l2.65183,7.92982h13.57504l-17.84146-44.86912s-16.93829.00374-16.93829.00375ZM333.65968,21.12828l7.68125,21.01865h-15.60504l7.92379-21.01865Z"/></g><path d="M88.71399,138.31162c4.13317,4.47523,6.20043,10.24971,6.20043,17.32344v1.53466c0,8.09858-2.91974,14.405-8.75732,18.92185-5.83885,4.51813-14.04344,6.77591-24.61112,6.77591h-1.78958c-18.15515,0-29.7893-6.52102-34.90343-19.56172l12.2737-6.39225c1.87378,4.4336,4.64461,7.75783,8.31057,9.97269,3.66368,2.21745,8.39381,3.32422,14.19105,3.32422h1.534c6.13734,0,10.86747-1.08728,14.19169-3.2605,3.32423-2.17322,4.98635-5.34789,4.98635-9.52528v-1.40591c0-3.49329-1.0671-6.37014-3.19677-8.62921-2.13162-2.25778-5.45584-3.68577-9.97268-4.28405l-15.08583-2.3007c-16.45077-2.21486-24.67518-10.35636-24.67518-24.41929v-1.53466c0-5.02796,1.3425-9.39654,4.0275-13.10443,2.68467-3.70789,6.43419-6.58472,11.25049-8.62921,4.81466-2.04578,10.42008-3.06932,16.81232-3.06932h1.79021c7.92625,0,14.6586,1.59839,20.20028,4.79517,5.53973,3.19547,9.50254,7.82025,11.89036,13.87176l-12.7858,5.49747c-2.89829-7.75524-9.37702-11.63481-19.43296-11.63481h-1.534c-5.45584,0-9.76069,1.10938-12.9126,3.32423-3.15451,2.21746-4.73078,5.15801-4.73078,8.82168v1.53466c0,6.30772,4.3029,10.14306,12.9126,11.50603l15.08648,2.17322c8.3522,1.10938,14.59488,3.89908,18.73,8.37431l.00002.00005ZM147.84456,127.38043l1.66146-11.63481h-21.35062v-19.30549h-14.06359v19.30549h-13.80804v11.63481h13.80804v32.98477c0,6.90466,1.746,12.20965,5.2419,15.91753,3.49329,3.70788,9.37443,5.56249,17.64337,5.56249h12.52892v-11.89101h-11.12303c-3.41006,0-5.96697-.78684-7.6707-2.36442-1.70633-1.57627-2.55691-4.19821-2.55691-7.86319v-32.34621h19.68915l.00005.00005ZM204.35256,151.79971c0,4.26324-.74651,7.82155-2.23696,10.67499-1.49239,2.85732-3.41006,4.96683-5.75366,6.32982-2.34491,1.36428-4.83808,2.04447-7.47887,2.04447h-.89544c-4.43231,0-7.73442-1.42542-9.90766-4.28275-2.17388-2.85473-3.2605-7.01001-3.2605-12.46457v-38.35608h-14.06358v40.40055c0,8.69424,2.15177,15.32318,6.45662,19.88164,4.30291,4.55977,10.07802,6.83965,17.32344,6.83965h1.15099c4.68592,0,8.73585-1.02225,12.14593-3.06801,3.40746-2.04578,6.09246-4.81466,8.05437-8.31057v9.71648h12.52958v-65.45973h-14.06424v36.05409h-.00002ZM280.55036,87.87464h14.06358v93.3307h-12.40214v-9.71648c-2.13097,3.57913-4.9857,6.37274-8.56549,8.37431-3.57979,2.00157-7.88464,3.00429-12.91324,3.00429h-.89479c-5.36934,0-10.14436-1.23684-14.31915-3.70788-4.17739-2.47106-7.45871-6.11522-9.84392-10.9312-2.38781-4.81466-3.58044-10.71661-3.58044-17.70711v-4.34646c0-6.90466,1.19261-12.74157,3.58044-17.51593,2.38522-4.77176,5.66653-8.41591,9.84392-10.9312,4.17479-2.51269,8.94979-3.77162,14.31915-3.77162h.89479c4.34712,0,8.20262.83106,11.57107,2.49317,3.36585,1.66211,6.11459,4.02783,8.2462,7.09584v-35.67043h.00002ZM280.67845,146.42971c0-4.77176-.78943-8.65003-2.36571-11.6335-1.57758-2.98347-3.62334-5.17882-6.1367-6.58473-2.51464-1.40591-5.22174-2.1095-8.11874-2.1095h-1.02225c-4.85887,0-8.88607,1.62051-12.08219,4.85887-3.19612,3.2397-4.79452,8.30926-4.79452,15.21394v4.47392c0,6.90466,1.5984,11.99897,4.79452,15.27897,3.19612,3.28131,7.22332,4.92131,12.08219,4.92131h1.02225c2.89699,0,5.60412-.7023,8.11874-2.1095,2.51333-1.40591,4.55911-3.59995,6.1367-6.58342,1.57627-2.98347,2.36571-6.90466,2.36571-11.76227v-3.96411.00002ZM311.8717,181.20534h14.0636v-65.45973h-14.0636v65.45973ZM311.61615,104.11211h14.5747v-14.70283h-14.5747v14.70283ZM402.64358,146.30225v4.219c0,6.82012-1.34219,12.65706-4.02654,17.51593-2.68565,4.85759-6.37274,8.54596-11.05931,11.05866-4.68851,2.51268-9.97204,3.77162-15.85318,3.77162h-1.15099c-5.8811,0-11.14448-1.25895-15.78942-3.77162-4.64625-2.51268-8.33202-6.20107-11.05931-11.05866-2.7286-4.85887-4.09089-10.69581-4.09089-17.51593v-4.09157c0-6.90335,1.36234-12.76239,4.09089-17.57836,2.72729-4.81466,6.41307-8.50306,11.05931-11.05996,4.64494-2.5569,9.90832-3.83534,15.78942-3.83534h1.15099c5.8811,0,11.16467,1.27844,15.85318,3.83534,4.68657,2.5569,8.37366,6.24529,11.05931,11.05996,2.68434,4.81597,4.02654,10.63338,4.02654,17.4509v.00002ZM388.58066,146.04604c0-6.7317-1.62051-11.74014-4.8589-15.02146-3.2397-3.28001-7.28701-4.92262-12.14528-4.92262h-1.02288c-4.77436,0-8.78008,1.64261-12.0178,4.92262-3.24033,3.28131-4.85822,8.28978-4.85822,15.02146v4.73144c0,6.7343,1.61789,11.76227,4.85822,15.08648,3.23776,3.32293,7.24348,4.98505,12.0178,4.98505h1.02288c4.85822,0,8.90558-1.66212,12.14528-4.98505,3.23839-3.32422,4.8589-8.35218,4.8589-15.08648v-4.73144Z"/></g></g><path d="M603.32229,112.0669c0,9.69853-6.40554,16.14918-16.46495,16.14918h-13.21707v-32.20814h13.21707c10.05941,0,16.46495,6.40554,16.46495,16.05896ZM581.26377,102.00749v20.16393h5.59357c5.50335,0,8.52569-3.47342,8.52569-10.10452s-3.02233-10.05941-8.52569-10.05941h-5.59357Z"/><path d="M622.17804,128.21608v-3.56365c-1.08263,2.34569-3.65387,4.10496-6.99196,4.10496-5.2327,0-8.34525-3.24789-8.34525-8.84145v-14.79589h7.6235v13.08174c0,3.20277,1.17285,4.73649,3.60876,4.73649,2.21036,0,3.96963-1.57884,3.96963-5.45824v-12.35999h7.6235v23.09604s-7.48817,0-7.48817-.00001Z"/><path d="M642.38707,128.21608h-7.44306v-33.20056h7.53328v13.53283c1.12774-2.30058,3.74409-3.96963,6.99197-3.96963,6.2251,0,10.10452,5.05226,10.10452,12.08933s-3.87942,12.08933-10.10452,12.08933c-3.20277,0-5.90934-1.66905-7.08218-3.96963v3.42832ZM642.34196,117.16427c0,3.83431,1.75927,6.18,4.7816,6.18s4.87182-2.48102,4.87182-6.6762-1.71416-6.72131-4.87182-6.72131-4.7816,2.34569-4.7816,6.2251v.99241Z"/><path d="M677.16646,124.83287c-1.17284,2.57124-3.87942,3.92452-7.39795,3.92452-4.91693,0-8.02948-2.66145-8.02948-6.81152,0-4.82671,3.87941-6.58598,8.5708-7.08218l6.49576-.63153v-.94729c0-2.12015-1.26306-3.3381-3.47342-3.3381-2.07503,0-3.24789,1.21795-3.38321,2.93211h-7.21751c.49621-5.18758,4.51094-8.30013,10.87138-8.30013,6.90175,0,10.55561,3.20277,10.55561,9.5632v7.48817c0,2.52613.09022,4.42073.40598,6.58598h-7.1724c-.13532-1.26306-.22555-2.25547-.22555-3.38322ZM676.80558,119.46485v-1.12774l-4.15007.49621c-2.02992.22555-3.47342.76686-3.47342,2.61634,0,1.53372,1.03752,2.48102,2.887,2.48102,2.48102,0,4.73649-1.53372,4.73649-4.46584Z"/><path d="M689.07535,95.37641h7.80394v6.54087h-7.80394v-6.54087ZM689.21067,105.12006h7.53328v23.09604h-7.53328v-23.09604Z"/><path d="M718.12584,117.34471v10.87138h-7.6235v-32.20814h14.48013c8.0746,0,12.67576,3.65387,12.67576,10.69094s-4.60116,10.64583-12.58554,10.64583c0,0-6.94686,0-6.94685-.00001ZM724.1705,111.34516c4.05985,0,5.81912-1.62394,5.81912-4.64627s-1.75927-4.69139-5.81912-4.69139h-6.04466v9.33765h6.04466Z"/><path d="M756.96507,111.93158c-.81197-.13532-1.57884-.18044-2.43591-.18044-3.42832,0-6.04466,2.02992-6.04466,6.36044v10.10452h-7.53328v-23.09604h7.44305v4.91692c1.17284-3.42832,3.65387-5.27781,6.90175-5.27781.63153,0,1.26306.04511,1.66905.22555v6.94686Z"/><path d="M770.67834,128.7574c-7.26262,0-12.31488-4.55605-12.31488-12.08933s5.05226-12.08933,12.31488-12.08933,12.26978,4.55605,12.26978,12.08933-5.05226,12.08933-12.26978,12.08933ZM770.67834,123.34427c3.11256,0,4.69138-2.48102,4.69138-6.6762s-1.57884-6.6762-4.69138-6.6762-4.73648,2.48102-4.73648,6.6762,1.62394,6.6762,4.73648,6.6762Z"/><path d="M802.66094,123.38937c-1.12774,2.25547-3.65385,4.05985-6.99196,4.05985-6.31532,0-10.19473-4.7816-10.19473-11.4578s3.87942-11.4127,10.19473-11.4127c3.3381,0,5.95446,1.80437,7.08219,4.01474v-3.47342h7.44305v20.34436c0,7.71371-5.00715,11.32247-12.4051,11.32247-6.81152,0-11.09693-2.887-11.90889-7.57839h7.44305c.54131,1.75927,2.12015,2.48102,4.42073,2.48102,2.93211,0,4.91694-1.48861,4.91694-5.09737v-3.20277h-.00002ZM802.84137,115.54033c0-3.47342-1.98483-5.63868-4.91694-5.63868-3.11256,0-4.87183,2.30058-4.87183,6.08978s1.75927,6.13489,4.87183,6.13489c2.93211,0,4.91694-2.16526,4.91694-5.7289v-.85709Z"/><path d="M831.53099,111.93158c-.81196-.13532-1.57884-.18044-2.4359-.18044-3.42832,0-6.04467,2.02992-6.04467,6.36044v10.10452h-7.53327v-23.09604h7.44305v4.91692c1.17284-3.42832,3.65385-5.27781,6.90174-5.27781.63153,0,1.26306.04511,1.66905.22555v6.94686Z"/><path d="M848.58235,124.83287c-1.17284,2.57124-3.87942,3.92452-7.39795,3.92452-4.91694,0-8.02948-2.66145-8.02948-6.81152,0-4.82671,3.87942-6.58598,8.57079-7.08218l6.49577-.63153v-.94729c0-2.12015-1.26306-3.3381-3.47342-3.3381-2.07504,0-3.24789,1.21795-3.38321,2.93211h-7.21752c.49621-5.18758,4.51094-8.30013,10.87137-8.30013,6.90174,0,10.55562,3.20277,10.55562,9.5632v7.48817c0,2.52613.09022,4.42073.40599,6.58598h-7.17241c-.13532-1.26306-.22554-2.25547-.22554-3.38321h-.00002ZM848.22149,119.46485v-1.12774l-4.15006.49621c-2.02993.22555-3.47342.76686-3.47342,2.61634,0,1.53372,1.03752,2.48102,2.887,2.48102,2.48101,0,4.73648-1.53372,4.73648-4.46584Z"/><path d="M890.03795,104.57874c5.3229,0,8.30014,3.29299,8.30014,8.84145v14.7959h-7.57838v-13.08174c0-3.15766-1.21795-4.73649-3.56364-4.73649-2.21036,0-3.92452,1.53372-3.92452,5.36802v12.45021h-7.57838v-13.08174c0-3.15766-1.21795-4.73649-3.56364-4.73649s-3.96963,1.53372-3.96963,5.36802v12.45021h-7.53327v-23.09604h7.44305v3.56365c1.12774-2.3908,3.65385-4.10496,6.94685-4.10496,3.83431,0,5.99956,1.66905,7.26262,4.15007,1.53373-2.48102,4.37562-4.15007,7.75883-4.15007h-.00005Z"/><path d="M571.20436,163.02554v-5.27781h3.02233v-2.34569c0-5.18758,2.93211-7.93926,8.25503-7.93926,1.57883,0,2.8419.04511,4.05985.27066v5.59357c-.76686-.09022-1.39839-.13532-2.21036-.13532-1.62394,0-2.57124.72176-2.57124,2.57124v1.98482h4.51094v5.27781h-4.51094v17.81823h-7.53328v-17.81823s-3.02233,0-3.02233-.00001Z"/><path d="M599.84886,181.38509c-7.26262,0-12.31488-4.55605-12.31488-12.08933s5.05226-12.08933,12.31488-12.08933,12.26977,4.55605,12.26977,12.08933-5.05226,12.08933-12.26977,12.08933ZM599.84886,175.97196c3.11255,0,4.69138-2.48102,4.69138-6.6762s-1.57883-6.6762-4.69138-6.6762-4.73649,2.48102-4.73649,6.6762,1.62394,6.6762,4.73649,6.6762Z"/><path d="M631.96678,164.55927c-.81197-.13532-1.57883-.18044-2.43591-.18044-3.42832,0-6.04467,2.02992-6.04467,6.36044v10.10452h-7.53328v-23.09604h7.44306v4.91692c1.17284-3.42832,3.65387-5.27781,6.90175-5.27781.63153,0,1.26306.04511,1.66905.22555v6.94686Z"/><path d="M658.17537,148.09432c8.25503,0,12.81108,4.42073,14.25459,11.14203h-7.75882c-.67664-3.20277-2.70657-5.14247-6.49576-5.14247-5.2778,0-8.20992,3.92452-8.20992,10.60072s2.93212,10.69094,8.20992,10.69094c4.15007,0,6.6762-2.30058,6.6762-5.2327v-.58642h-5.00715v-5.50336h12.9013v16.78071h-6.04466l-.45109-3.87942c-1.12774,2.66145-5.09737,4.42073-8.70612,4.42073-9.51809,0-15.51765-6.85663-15.51765-16.69049s6.31532-16.60028,16.14917-16.60027Z"/><path d="M692.05257,177.46056c-1.17284,2.57124-3.87942,3.92452-7.39795,3.92452-4.91692,0-8.02949-2.66145-8.02949-6.81152,0-4.82671,3.87942-6.58598,8.57079-7.08218l6.49576-.63153v-.94729c0-2.12015-1.26306-3.3381-3.47342-3.3381-2.07503,0-3.24789,1.21795-3.38321,2.93211h-7.21752c.49621-5.18758,4.51094-8.30013,10.87138-8.30013,6.90174,0,10.55561,3.20277,10.55561,9.5632v7.48817c0,2.52613.09022,4.42073.40598,6.58598h-7.1724c-.13532-1.26306-.22555-2.25547-.22554-3.38322ZM691.6917,172.09254v-1.12774l-4.15007.49621c-2.02992.22555-3.47342.76686-3.47342,2.61634,0,1.53372,1.03752,2.48102,2.887,2.48102,2.48102,0,4.73649-1.53372,4.73649-4.46584Z"/><path d="M733.50815,157.20643c5.32292,0,8.30013,3.29299,8.30013,8.84145v14.7959h-7.57839v-13.08174c0-3.15766-1.21795-4.73649-3.56365-4.73649-2.21036,0-3.92452,1.53372-3.92452,5.36802v12.45021h-7.57839v-13.08174c0-3.15766-1.21795-4.73649-3.56365-4.73649s-3.96963,1.53372-3.96963,5.36802v12.45021h-7.53328v-23.09604h7.44305v3.56365c1.12774-2.3908,3.65387-4.10496,6.94686-4.10496,3.83431,0,5.99955,1.66905,7.26262,4.15007,1.53372-2.48102,4.37562-4.15007,7.75882-4.15007h.00002Z"/><path d="M746.72522,148.0041h7.80394v6.54087h-7.80394v-6.54087ZM746.86056,157.74775h7.53328v23.09604h-7.53328v-23.09604Z"/><path d="M767.15981,161.31139c1.12774-2.34569,3.65385-4.10496,7.1273-4.10496,5.3229,0,8.57079,3.24789,8.57079,8.84145v14.79589h-7.57838v-12.99152c0-3.20277-1.26306-4.82671-3.83431-4.82671-2.34569,0-4.19517,1.53372-4.19517,5.45824v12.35999h-7.53328v-23.09604h7.44307v3.56365h-.00002Z"/><path d="M803.60825,176.01706c-1.12774,2.25547-3.65385,4.05985-6.99196,4.05985-6.31532,0-10.19473-4.7816-10.19473-11.4578s3.87942-11.4127,10.19473-11.4127c3.3381,0,5.95446,1.80437,7.08219,4.01474v-3.47342h7.44305v20.34436c0,7.71371-5.00715,11.32247-12.4051,11.32247-6.81152,0-11.09693-2.887-11.90889-7.57839h7.44305c.54131,1.75927,2.12015,2.48102,4.42073,2.48102,2.93211,0,4.91694-1.48861,4.91694-5.09737v-3.20277h-.00002ZM803.78868,168.16802c0-3.47342-1.98483-5.63868-4.91694-5.63868-3.11256,0-4.87183,2.30058-4.87183,6.08978s1.75927,6.13489,4.87183,6.13489c2.93211,0,4.91694-2.16526,4.91694-5.7289v-.85709Z"/><polygon points="926.32096 142.48571 923.04302 139.74907 920.03572 143.34279 923.82492 146.4403 926.56155 143.46309 929.73425 146.04935 932.86184 142.606 928.95235 139.35812 926.32096 142.48571"/><polygon points="1002.93186 134.47127 1007.15711 137.91462 1010.63053 134.12542 1006.25491 130.4866 1002.93186 134.47127"/><path d="M999.60881,128.21608h2.69154c3.63885,0,5.98454-.82701,7.35286-2.34569,1.63897-1.83445,2.1051-4.96204,2.1051-8.01445,0-2.49606-.31575-5.08233-.63155-7.15737l-5.66874.82701c.39096,2.3908.97736,6.52583.97736,8.36028,0,1.05255-.73677,1.68409-3.32305,1.68409h-62.88258c-3.71401,0-8.01445-.54131-11.29239-1.32321l-1.21795,5.93941c2.30058.58642,4.88686,1.12774,6.45064,1.87956-1.51868,1.48861-4.76656,2.69153-9.30759,2.69153-5.20263,0-8.01445-2.02992-8.01445-6.40554,0-1.83445.24059-3.75912.66161-6.18l-4.88686-.66161c-.66161,2.54117-1.41343,6.49576-1.41343,9.18729,0,6.72131,4.30043,10.70598,12.35999,10.70598,6.76642,0,12.07429-2.3908,14.66057-6.37547.57139-.87212.88715-1.81941,1.03752-2.81183h60.34139Z"/><path d="M1022.99052,105.97714l-3.9546,4.49591c4.30041,3.47342,7.30771,6.76642,8.60087,10.94656-2.19531.46613-4.69138.66161-7.15738.66161-2.73665,0-4.45079-.24059-5.98454-.39095v5.93941c1.71418.73678,3.75912,1.05255,5.98454,1.05255,4.61621,0,9.067-1.68409,10.48043-3.44336.73677-.93227,1.24801-2.54117,1.24801-4.54101,0-6.30029-3.78918-11.18715-9.23242-14.73576l.0151.01505Z"/><polygon points="1057.73981 128.48674 1061.15312 124.81785 1056.85267 121.2993 1053.60478 125.16368 1057.73981 128.48674"/><path d="M1086.71514,109.96179c-3.44337,0-5.62363,1.75927-9.14216,6.88671-2.1051,3.08248-3.08246,4.73649-5.00713,4.73649h-1.29312c-3.86439,0-4.93196-1.4435-4.93196-3.75912v-1.6089c.54129-.12029,1.09768-.19547,1.68408-.27066l.54129-5.39809c-4.81169-.58642-10.0143-3.12759-16.37475-3.12759-3.12757,0-5.08234.73678-6.49577,1.21795l1.4886,5.54847c1.75929-.63153,2.66144-.90219,5.00713-.90219,2.1051,0,4.18014.51123,6.13486,1.02248-1.75929.39095-3.56364.97737-5.39809,1.87956-4.88686,2.3908-8.01443,6.49576-8.01443,11.18715,0,6.10481,4.541,10.0143,13.56289,10.0143,2.97724,0,5.98454-.34584,7.93926-.85708l2.15021-5.54847v-.46613c-2.66144.12029-5.12745.15036-7.35286.15036-6.40556,0-11.18715-1.6089-11.18715-4.6162,0-2.69153,4.64627-6.60102,12.16451-8.84145l.04511,3.1727c.07516,4.69139,2.30058,7.86409,7.23254,7.86409h2.73665v-.04511c2.51111-.21051,4.22525-1.5638,5.98454-4.18014,3.27794,2.54117,7.8641,4.81167,10.0143,4.81167,1.24801,0,2.27052-.63153,3.17268-2.10511,1.68408-2.78175,2.46601-5.71387,2.46601-8.36028,0-4.64627-2.49606-8.36028-7.11227-8.36028l-.01496-.04514ZM1088.47439,122.7428c-2.73665-.90219-4.69138-1.75927-7.38292-3.51853,1.90962-2.69153,2.97724-3.27795,4.45079-3.27795,1.56381,0,3.27794,1.63897,3.27794,4.4508,0,.70672-.12027,1.48861-.34586,2.34569h.00005Z"/><polygon points="1117.91585 104.5637 1113.54022 100.92488 1110.21717 104.90954 1114.42737 108.35289 1117.91585 104.5637"/><path d="M1117.72036,110.69859l-5.66874.82701c.39096,2.3908.97736,6.52584.97736,8.36028,0,1.05255-.73677,1.68409-3.32305,1.68409h-2.3908c-2.15021,0-3.63885-1.05255-3.63885-3.98467,0-1.90963.07516-4.10496.12027-6.18l.24059-14.54028-6.10481.51123.51123,23.50202c.07516,4.4508,2.54117,7.35284,7.03706,7.35284h3.39826c3.63885,0,5.98454-.82701,7.35286-2.34569,1.63897-1.83445,2.1051-4.96204,2.1051-8.01445,0-2.49606-.31575-5.08233-.63155-7.15737l.01505-.01503Z"/><path d="M1187.8505,128.21608h2.69154c3.63885,0,5.98454-.82701,7.35286-2.34569,1.63897-1.83445,2.1051-4.96204,2.1051-8.01445,0-2.49606-.31575-5.08233-.63155-7.15737l-5.66874.82701c.39096,2.3908.97736,6.52583.97736,8.36028,0,1.05255-.73677,1.68409-3.32305,1.68409h-55.27413c-2.66144,0-3.78918-1.21795-4.88686-4.25533-.66161-1.95475-1.12774-3.71401-1.4886-5.00715l-4.84175,1.09767c.82699,3.39825,1.56381,6.64612,1.56381,7.42803,0,3.1727-2.81181,8.28511-10.04436,11.38262v.63153l3.51853,4.76656c5.32293-2.19533,9.067-6.69123,10.36016-11.92393,1.11269,1.47358,2.70655,2.37577,4.81169,2.51109v.03007h52.77802l-.00005-.01503Z"/><polygon points="1191.17359 134.47127 1195.39884 137.91462 1198.87226 134.12542 1194.49664 130.4866 1191.17359 134.47127"/><polygon points="836.56822 151.13169 839.99653 153.91344 843.12412 150.50015 839.18455 147.22221 836.79375 150.07913 833.27522 147.14702 830.26793 150.74074 834.10223 153.82322 836.56822 151.13169"/><polygon points="891.82729 186.36217 888.54933 183.62553 885.527 187.21925 889.33123 190.30172 892.06786 187.33953 895.22553 189.91078 898.35312 186.48245 894.44362 183.23458 891.82729 186.36217"/><polygon points="910.0515 157.19139 905.66085 153.55257 902.33778 157.53722 906.56303 160.98058 910.0515 157.19139"/><path d="M881.58743,180.84377h3.1727c3.51853,0,6.01459-1.4435,7.23254-3.71401.94731,2.18029,3.03738,3.63883,6.33037,3.69897h2.70657c3.63883,0,5.98451-.82701,7.35284-2.34569,1.63897-1.83445,2.1051-4.96204,2.1051-8.01445,0-2.49606-.31578-5.08233-.63153-7.15737l-5.66876.82701c.39094,2.3908.97736,6.52584.97736,8.36028,0,1.05255-.7368,1.68409-3.32307,1.68409h-2.3908c-3.90949,0-5.08234-1.12774-5.08234-4.81167v-4.34554h-4.76656v4.25533c0,3.63883-1.95475,4.88686-4.64627,4.88686h-39.62114c-2.1051,0-3.32307-.90219-3.32307-3.90948v-14.22451h-5.71387v2.93211c-6.64612,1.71416-12.2397,4.34554-12.2397,11.77357,0,4.15007,3.47342,5.51839,13.0216,5.59357.9022,3.0073,3.44334,4.49591,6.8416,4.49591h37.66639l.00002.01503ZM836.28252,170.40846c-4.54102-.12029-6.52583-.73678-8.01445-1.80437,2.02993-2.34569,4.42073-3.51853,8.01445-4.30043v6.10481Z"/><path d="M922.08069,162.39401c-2.30058,0-3.59372,1.02248-5.12745,2.93211-1.51868,1.99985-3.0524,5.2327-3.0524,8.05956,0,3.24789,1.90964,6.96189,10.51051,6.96189h.54131c-2.02993,1.75927-5.90933,3.20277-11.48787,4.37562l-.07519.43606,2.81181,5.42817c8.9467-2.3908,14.22452-7.77386,14.22452-16.46494,0-6.30029-4.10495-11.72846-8.36028-11.72846h.01503ZM925.10301,174.36305c-5.08234,0-6.72131-1.99985-6.72131-2.69153,0-.43606,1.02247-2.66145,2.46598-4.25533,2.69152,1.63897,4.61621,4.73649,4.96204,6.96189h-.70672v-.01503Z"/><polygon points="959.14563 159.49197 962.58895 162.27372 965.71657 158.87548 961.76196 155.58249 959.38622 158.43942 955.86764 155.5073 952.86037 159.10102 956.67963 162.19854 959.14563 159.49197"/><path d="M991.66955,167.747c.04511,1.12774.07516,2.887.07516,4.18014s-.51123,2.27051-2.54117,2.27051h-1.41343c-2.61633,0-3.75912-1.32321-7.35286-5.78904-2.02993-2.49606-4.15008-5.12745-7.81899-8.52568,3.17268-1.4435,7.77388-2.81183,13.41256-4.22525v-5.90934c-9.18727,2.2254-16.54013,5.03722-17.71297,6.96189-.70672,1.12774-.70672,3.0524-.70672,4.54101,0,1.17284.9022,2.3908,1.99983,3.47342,5.42815,5.27781,6.84158,7.5032,6.84158,7.96934,0,.34584-1.56381,1.48861-5.1575,1.48861h-4.30041c-3.90949,0-5.08234-1.12774-5.08234-4.81167v-4.34554h-4.76659v4.25533c0,3.63883-1.95475,4.88686-4.64627,4.88686h-2.34569c-2.66146,0-3.7892-1.21795-4.88686-4.25533-.66161-1.95475-1.12774-3.71401-1.48862-5.00715l-4.84175,1.09767c.82701,3.39825,1.56378,6.64612,1.56378,7.42803,0,3.1727-2.81181,8.28511-10.04436,11.38262v.63153l3.51853,4.76656c5.3229-2.19533,9.067-6.69123,10.36014-11.92393,1.11271,1.47358,2.70657,2.37577,4.81167,2.51109v.03007h3.15767c3.51853,0,6.01459-1.4435,7.23254-3.71401.96236,2.18029,3.03735,3.63883,6.33035,3.69897h4.81169c5.03723,0,7.5784-1.95475,8.79635-4.02978,1.86451,2.42087,3.59374,3.86438,5.90933,3.99971v.03007h2.61638c5.42815,0,7.50319-2.34569,8.1648-4.54101.51123-1.48861.78188-4.88686.85709-8.84145l.27065-18.02874-6.25518.51123.63155,17.78816.00005.04511Z"/><path d="M1014.63024,161.44672c.04511,2.34569.07516,4.25533.07516,5.74394,0,3.86438-1.12774,4.88686-3.44337,6.01459-1.71418-8.01445-3.98466-14.14934-6.69125-20.01355l-5.71385,2.78175c3.20278,6.64612,6.17997,12.58554,8.1648,18.37458-1.36833.15036-2.73665.24059-4.05987.24059h-3.47342l-.07516.51123,1.24801,5.54847c1.29312.07519,2.85692.24059,4.541.24059,7.38292,0,14.85605-4.69139,15.09664-15.51765l.34586-15.87852-6.30029.51123.27065,11.4578.0151-.01505Z"/><path d="M1004.22498,188.93341c-1.05257,0-2.30058-1.41343-2.30058-1.99985,0-.63153,1.17284-1.05255,2.27052-1.05255.82699,0,1.60891.15036,2.42085.43606l.27065-.12029-.54129-2.93211c-.93225-.31576-1.87956-.46613-2.81181-.46613-2.19531,0-4.5711,1.48861-4.5711,4.15007,0,1.05255.31575,2.19533,1.29312,3.12759-.54129.19547-1.09768.39095-1.5187.58642v3.17269l.19548.15037c1.71418-.43605,5.62363-1.90963,9.14216-2.85693v-2.887l-.19548-.04511c-.93225.27066-2.58628.73678-3.63885.73678h-.01496Z"/><polygon points="1024.16337 149.95885 1024.94525 180.84377 1030.07269 180.84377 1030.41855 149.4476 1024.16337 149.95885"/><path d="M1069.5134,164.54423c.46613,2.30058.97736,5.54847.97736,7.38291,0,1.6089-2.30058,2.66145-10.94656,2.66145-7.42803,0-11.09693-1.48861-11.09693-5.78904,0-1.17284.39096-3.27795.63155-4.6162l-4.541-.82701c-.63155,2.02992-1.41343,5.62364-1.41343,7.81897,0,6.52584,3.32305,10.04437,14.73573,10.04437,8.36028,0,13.83358-1.21795,16.0289-3.39825,1.44349-1.4435,1.90962-3.47342,1.90962-6.96189,0-2.49606-.31575-5.08233-.63155-7.15737l-5.66874.82701.01505.01505Z"/><polygon points="1055.43923 187.41472 1059.66448 190.85808 1063.13795 187.06889 1058.76233 183.43005 1055.43923 187.41472"/><path d="M1123.34399,180.84377h2.19531c5.1575,0,8.64598-1.09767,12.31488-3.1727,3.59374,2.19533,6.52583,3.1727,10.55559,3.1727h3.12757c5.42815,0,7.50319-2.34569,8.1648-4.54101.51123-1.48861.78188-4.88686.85709-8.84145l.27065-18.02874-6.25518.51123.63155,17.78816c.04511,1.12774.07516,2.887.07516,4.18014s-.51123,2.27051-2.54117,2.27051h-2.78176c-1.99983,0-3.98466-.19547-6.45066-.66161,3.78918-3.24789,5.54847-6.33036,6.17997-10.43532-2.73665-1.71416-7.11227-2.49606-11.60817-2.49606-3.83428,0-7.74378.58642-10.70597,1.5638v6.57095c1.36833,1.48861,3.32305,3.20277,5.4733,4.88686-2.27052.43606-4.42073.58642-6.33035.58642h-37.21529c-2.15021,0-3.63885-1.05255-3.63885-3.98467,0-1.90963.07516-4.10496.12027-6.18l.24059-14.54028-6.10481.51123.51123,23.50202c.07516,4.4508,2.54117,7.35284,7.03706,7.35284h35.89208l-.01491-.01503ZM1138.36547,171.73167c-2.19531-1.21795-4.22525-2.81183-6.13486-4.57109,1.75929-.39095,3.59374-.58642,5.35298-.58642,2.1051,0,4.15008.27066,6.0597.90219-1.4886,1.5638-3.12757,3.0524-5.27782,4.25533Z"/><path d="M1171.62616,146.78615l-.19548-.04511c-.93225.27066-2.58628.73678-3.63885.73678s-2.30058-1.41343-2.30058-1.99985c0-.63153,1.17284-1.05255,2.27052-1.05255.82699,0,1.60891.15036,2.42085.43606l.27065-.12029-.54129-2.93211c-.93225-.31576-1.87956-.46613-2.81181-.46613-2.19531,0-4.5711,1.48861-4.5711,4.15007,0,1.05255.31575,2.19533,1.29312,3.12759-.54129.19547-1.09768.39095-1.5187.58642v3.1727l.19548.15036c1.71418-.43606,5.62363-1.90963,9.14216-2.85693v-2.887h-.01496Z"/><path d="M1193.75987,149.95885l.63155,17.78816c.04511,1.12774.07516,2.887.07516,4.18014s-.51123,2.27051-2.54117,2.27051h-2.61633c-2.15021,0-3.63885-1.05255-3.63885-3.98467,0-1.80437.04511-3.59372.07516-5.39809l.27065-15.32218-6.30029.51123.27065,12.82612c.04511,1.5638.12027,3.95459.12027,5.51839,0,3.0073-1.24801,3.98467-3.59374,5.15751-1.63897-8.16481-3.86439-14.41998-6.57094-20.28421l-5.78906,2.66145c3.24789,6.69123,6.25518,12.66072,8.25501,18.49488-1.24801.12029-2.54117.24059-3.78918.24059h-3.75912l-.07516.51123,1.24801,5.54847c1.24801.07519,2.73665.24059,4.34557.24059,3.83428,0,7.62351-1.41343,10.28495-4.54101,1.09768,3.08248,3.59374,4.49591,6.79647,4.49591h3.24789c5.42815,0,7.50319-2.34569,8.1648-4.54101.51123-1.48861.78188-4.88686.85709-8.84145l.27065-18.02874-6.25518.51123.01514-.01505Z"/><path d="M638.8535,39.47077c-14.54028,0-26.31384-5.8943-26.31384-13.15692s11.7886-13.15692,26.31384-13.15692,26.31384,5.8943,26.31384,13.15692-11.77357,13.15692-26.31384,13.15692M623.06519,0c-29.06552,0-52.62769,11.7886-52.62769,26.31384s23.56217,26.31384,52.62769,26.31384,52.62769-11.7886,52.62769-26.31384S652.13071,0,623.06519,0Z"/></svg>